# xmcd
#
# Track frame offsets: 
#        150
#        16472
#        29612
#        42050
#        55167
#        70910
#        84952
#        102207
#        118032
#        134755
#        155967
#        178680
#        195042
#        211742
#        226890
#        249900
#        267320
#        283092
#        300155
#        320442
#
# Disc length: 4482 seconds
#
# Revision: 2
# Processed by: cddbd v1.5.1PL0 Copyright (c) Steve Scherf et al.
# Submitted via: ExactAudioCopy v0.95a5
#
DISCID=0e118014
DTITLE=Various Artist - The Soul Album II Disc 2
DYEAR=1910
DGENRE=Soul
TTITLE0=Curtis Mayfield - Move On Up
TTITLE1=Chairman Of The Board - You've Got Me Dancing On A String
TTITLE2=Bob and Earl - Harlem Shuffle
TTITLE3=Jackie Wilson - I Get The Sweetest Feeling
TTITLE4=Aretha Franklin - I Say A Little Prayer
TTITLE5=Lutricia Mcneal - Ain't That Just The Way
TTITLE6=Johnny Bristol - Hang On In There Baby
TTITLE7=Lou Rawls - You'll Never Find Another Love Like Mine
TTITLE8=Bill Withers - Use Me
TTITLE9=Al Green - Let's Stay Together
TTITLE10=Joe Cocker - Unchain My Heart
TTITLE11=Righteous Brothers - You've Lost That Lovin' Feelin'
TTITLE12=Diana Ross - I'm Still Waiting
TTITLE13=Harold Melvin And The Bluenotes - If You Don't Know Me By Now
TTITLE14=The Chi-Lites - Have You Seen Her ?
TTITLE15=Billy Ocean - Suddenly
TTITLE16=Peabo Bryson and Roberta Flack - Tonight I Celebrate My Love
TTITLE17=Otis Redding - Try A Little Tenderness
TTITLE18=Maze Feat - Joy And Pain
TTITLE19=Lorraine Ellison - Stay With Me
EXTD=
EXTT0=
EXTT1=
EXTT2=
EXTT3=
EXTT4=
EXTT5=
EXTT6=
EXTT7=
EXTT8=
EXTT9=
EXTT10=
EXTT11=
EXTT12=
EXTT13=
EXTT14=
EXTT15=
EXTT16=
EXTT17=
EXTT18=
EXTT19=
PLAYORDER=
